<svg xmlns="http://www.w3.org/2000/svg" width="17.298" height="24" viewBox="0 0 17.298 24">
  <g id="bulb-2-svgrepo-com" transform="translate(-4.246 -1.279)">
    <path id="Path_556" data-name="Path 556" d="M12.9,1.279a8.639,8.639,0,0,1,4.817,15.814l-.006,0a1.395,1.395,0,0,0-.628,1.164v1.707a.837.837,0,0,1-.837.837H9.551a.837.837,0,0,1-.837-.837V18.261A1.395,1.395,0,0,0,8.079,17.1l-.011-.007A8.647,8.647,0,0,1,4.252,9.607V9.595a8.758,8.758,0,0,1,8.487-8.314C12.792,1.279,12.845,1.279,12.9,1.279ZM16.785,15.7a6.967,6.967,0,0,0-4-12.748,7.085,7.085,0,0,0-6.86,6.719A6.973,6.973,0,0,0,9,15.7a3.068,3.068,0,0,1,1.39,2.558v.873h5.021v-.87a3.068,3.068,0,0,1,1.377-2.56Z" transform="translate(0)"/>
    <path id="Path_557" data-name="Path 557" d="M12.434,23.079A6.456,6.456,0,0,1,8.585,21.8a.837.837,0,1,1,1-1.339,4.742,4.742,0,0,0,5.69,0,.837.837,0,1,1,1,1.339A6.456,6.456,0,0,1,12.434,23.079Z" transform="translate(0.463 2.2)"/>
    <path id="Path_558" data-name="Path 558" d="M12.327,15.489a.837.837,0,0,1-.716-1.269l1.874-3.113a.054.054,0,0,0,.006-.025.056.056,0,0,0-.056-.056H11.206A1.729,1.729,0,0,1,9.715,8.4l1.85-3.1A.837.837,0,1,1,13,6.156l-1.852,3.1-.006.01a.055.055,0,0,0-.008.028.056.056,0,0,0,.056.057h2.241a1.729,1.729,0,0,1,1.488,2.615l-1.876,3.116A.836.836,0,0,1,12.327,15.489Z" transform="translate(0.603 0.418)"/>
  </g>
</svg>
