<svg xmlns="http://www.w3.org/2000/svg" width="39.579" height="39.571" viewBox="0 0 39.579 39.571">
  <path id="Icon_awesome-instagram" data-name="Icon awesome-instagram" d="M19.789,11.878A10.145,10.145,0,1,0,29.934,22.023,10.129,10.129,0,0,0,19.789,11.878Zm0,16.741a6.6,6.6,0,1,1,6.6-6.6,6.608,6.608,0,0,1-6.6,6.6ZM32.716,11.463A2.366,2.366,0,1,1,30.349,9.1,2.361,2.361,0,0,1,32.716,11.463Zm6.719,2.4c-.15-3.17-.874-5.978-3.2-8.291s-5.121-3.037-8.291-3.2c-3.267-.185-13.059-.185-16.326,0-3.161.15-5.969.874-8.291,3.188S.293,10.686.134,13.855c-.185,3.267-.185,13.059,0,16.326.15,3.17.874,5.978,3.2,8.291s5.121,3.037,8.291,3.2c3.267.185,13.059.185,16.326,0,3.17-.15,5.978-.874,8.291-3.2s3.037-5.121,3.2-8.291c.185-3.267.185-13.05,0-16.317ZM35.214,33.687a6.678,6.678,0,0,1-3.761,3.761c-2.6,1.033-8.786.795-11.664.795s-9.068.23-11.664-.795a6.678,6.678,0,0,1-3.761-3.761c-1.033-2.6-.795-8.786-.795-11.664s-.23-9.068.795-11.664A6.678,6.678,0,0,1,8.125,6.6c2.6-1.033,8.786-.795,11.664-.795s9.068-.23,11.664.795a6.678,6.678,0,0,1,3.761,3.761c1.033,2.6.795,8.786.795,11.664S36.247,31.091,35.214,33.687Z" transform="translate(0.005 -2.238)"/>
</svg>
