<svg xmlns="http://www.w3.org/2000/svg" xmlns:xlink="http://www.w3.org/1999/xlink" width="390.887" height="709.115" viewBox="0 0 390.887 709.115">
  <defs>
    <clipPath id="clip-path">
      <rect id="Rectangle_223" data-name="Rectangle 223" width="390.887" height="709.115" transform="translate(103 39)" fill="none"/>
    </clipPath>
  </defs>
  <g id="Scroll_Group_11" data-name="Scroll Group 11" transform="translate(-103 -39)" clip-path="url(#clip-path)">
    <g id="Group_696" data-name="Group 696" transform="translate(-0.001)">
      <path id="Path_609" data-name="Path 609" d="M96.811,229.853,44.9,274.974,0,223.318,88.143,0Z" transform="matrix(-0.656, 0.755, -0.755, -0.656, 271.04, 180.399)" fill="#f8ea1e"/>
      <path id="Path_610" data-name="Path 610" d="M38.026,0,13.138,81.528,0,66.414Z" transform="matrix(-0.656, 0.755, -0.755, -0.656, 214.184, 88.317)" fill="#f8ea1e"/>
      <path id="Path_611" data-name="Path 611" d="M45.134,0,0,103.2,1.465,34.01Z" transform="matrix(-0.656, 0.755, -0.755, -0.656, 302.554, 255.193)" fill="#f8ea1e"/>
      <path id="Path_612" data-name="Path 612" d="M39.629,0,7.573,91.091,0,25.758Z" transform="matrix(-0.656, 0.755, -0.755, -0.656, 375.747, 404.977)" fill="#f8ea1e"/>
      <path id="Path_613" data-name="Path 613" d="M26.925,0,5.145,61.888,0,17.5Z" transform="matrix(-0.656, 0.755, -0.755, -0.656, 345.373, 723.81)" fill="#f8ea1e"/>
      <path id="Path_614" data-name="Path 614" d="M9.509,0l9.158,47.344L0,14.617Z" transform="matrix(-0.656, 0.755, -0.755, -0.656, 102.566, 569.929)" fill="#f8ea1e"/>
      <path id="Path_615" data-name="Path 615" d="M77.927,0,0,206.141l4.315-103.43Z" transform="matrix(-0.656, 0.755, -0.755, -0.656, 519.888, 595.352)" fill="#f8ea1e"/>
      <path id="Path_616" data-name="Path 616" d="M77.927,206.141,0,0,4.315,103.43Z" transform="matrix(0.848, -0.53, 0.53, 0.848, 108.743, 580.164)" fill="#f8ea1e"/>
      <path id="Path_617" data-name="Path 617" d="M12.514,0,65.855,120.268,0,39.519Z" transform="matrix(-0.656, 0.755, -0.755, -0.656, 390.737, 684.676)" fill="#ee000f"/>
      <path id="Path_618" data-name="Path 618" d="M26.235,0,0,109.6,75.654,56.85Z" transform="matrix(-0.656, 0.755, -0.755, -0.656, 494.438, 730.018)" fill="#ee000f"/>
      <path id="Path_619" data-name="Path 619" d="M0,38.614,10.858,87.057,25.451,0Z" transform="matrix(-0.656, 0.755, -0.755, -0.656, 513.197, 718.798)" fill="#1bc1f7"/>
      <path id="Path_620" data-name="Path 620" d="M37.441,56.491,153.823,0,0,23.943Z" transform="matrix(0.656, 0.755, -0.755, 0.656, 53.283, 120.588)" fill="#f8ea1e"/>
      <path id="Path_621" data-name="Path 621" d="M31.344,122.01l93.1-16.125L192.869,0,0,94.763Z" transform="matrix(0.656, 0.755, -0.755, 0.656, 106.731, 155.848)" fill="#ee000f"/>
      <path id="Path_622" data-name="Path 622" d="M26.015,22.614l16.6-7.32L0,0Z" transform="matrix(0.656, 0.755, -0.755, 0.656, 35.213, 471.128)" fill="#ee000f"/>
      <path id="Path_623" data-name="Path 623" d="M31.847,35.211,62.455,0,0,7.526Z" transform="matrix(0.656, 0.755, -0.755, 0.656, 40.893, 703.044)" fill="#ee000f"/>
      <path id="Path_624" data-name="Path 624" d="M26.015,58.158,145.79,10.266,68.176,0,0,35.544Z" transform="matrix(0.656, 0.755, -0.755, 0.656, 62.038, 610.95)" fill="#ee000f"/>
      <path id="Path_625" data-name="Path 625" d="M6.848,178.9,299.292,33.67,159.321,0,0,172.947Z" transform="matrix(0.656, 0.755, -0.755, 0.656, 165.738, 233.131)" fill="#ee000f"/>
      <path id="Path_626" data-name="Path 626" d="M40.427,57.572,131.189,0,0,22.43Z" transform="matrix(0.656, 0.755, -0.755, 0.656, 52.141, 377.644)" fill="#1bc1f7"/>
      <path id="Path_627" data-name="Path 627" d="M297.87,33.18,154.868,0,0,102Z" transform="matrix(0.656, 0.755, -0.755, 0.656, 249.484, 393.833)" fill="#1bc1f7"/>
      <path id="Path_628" data-name="Path 628" d="M254.963,0,93.92,27.512,0,117.178,132.912,80.5Z" transform="matrix(0.656, 0.755, -0.755, 0.656, 172.681, 443.397)" fill="#1bc1f7"/>
      <path id="Path_629" data-name="Path 629" d="M38.509,68.865l71.863,19.256L0,0Z" transform="translate(154.649 693.164) rotate(-15.009)" fill="#ee000f"/>
    </g>
  </g>
</svg>
